<?xml version="1.0" standalone="no"?>
<!DOCTYPE svg PUBLIC "-//W3C//DTD SVG 20010904//EN"
 "http://www.w3.org/TR/2001/REC-SVG-20010904/DTD/svg10.dtd">
<svg version="1.0" xmlns="http://www.w3.org/2000/svg"
 width="3000.000000pt" height="3000.000000pt" viewBox="0 0 3000.000000 3000.000000"
 preserveAspectRatio="xMidYMid meet">
<metadata>
Created by potrace 1.14, written by Peter Selinger 2001-2017
</metadata>
<g transform="translate(0.000000,3000.000000) scale(0.100000,-0.100000)"
fill="#000000" stroke="none">
<path d="M12407 28934 c-2 -1 -228 -13 -297 -16 -37 -1 -118 -22 -151 -39 -94
-47 -343 -444 -417 -665 -18 -53 -66 -229 -76 -280 -3 -11 -20 -84 -40 -164
-19 -80 -78 -334 -131 -565 -52 -231 -100 -438 -105 -460 -14 -60 -78 -355
-85 -394 -3 -19 -7 -37 -9 -40 -2 -3 -7 -22 -10 -41 -3 -19 -12 -64 -20 -100
-31 -142 -45 -207 -50 -244 -4 -21 -8 -42 -11 -46 -2 -3 -7 -22 -10 -41 -3
-19 -15 -79 -26 -134 -12 -55 -23 -109 -25 -120 -2 -11 -11 -54 -19 -95 -8
-41 -17 -86 -20 -100 -3 -14 -14 -72 -26 -130 -12 -58 -23 -121 -26 -140 -2
-19 -8 -51 -13 -70 -5 -19 -12 -55 -15 -79 -13 -92 -56 -236 -90 -305 -72
-145 -182 -238 -366 -310 -63 -24 -197 -64 -248 -72 -14 -3 -57 -11 -96 -19
-38 -8 -83 -16 -99 -19 -16 -3 -52 -10 -80 -16 -28 -6 -62 -12 -76 -15 -27 -5
-110 -22 -150 -31 -14 -3 -36 -7 -50 -10 -14 -3 -56 -12 -95 -20 -38 -8 -83
-18 -100 -20 -16 -3 -48 -10 -70 -16 -22 -5 -51 -12 -65 -15 -21 -4 -266 -57
-310 -68 -8 -2 -58 -13 -110 -25 -52 -12 -102 -23 -110 -25 -16 -4 -235 -54
-260 -60 -8 -2 -35 -8 -60 -14 -25 -7 -56 -14 -70 -17 -14 -3 -43 -10 -65 -16
-49 -13 -50 -13 -155 -37 -47 -11 -222 -54 -390 -96 -425 -106 -423 -106 -540
-110 -145 -4 -240 23 -350 100 -117 82 -240 117 -402 113 -251 -5 -321 -2
-390 20 -232 73 -383 223 -435 432 -10 39 -4 140 12 220 3 14 5 59 6 101 0 58
-4 86 -19 115 -57 111 -174 174 -312 169 -41 -2 -86 -6 -100 -9 -14 -3 -67
-13 -119 -21 -137 -22 -368 -83 -424 -111 -151 -76 -204 -186 -153 -318 15
-39 105 -162 136 -186 16 -12 60 -100 73 -147 26 -88 16 -178 -44 -377 -29
-96 -87 -310 -94 -349 -4 -18 -54 -215 -80 -312 -7 -27 -55 -192 -105 -365
-51 -173 -93 -319 -94 -325 -1 -5 -4 -14 -7 -20 -4 -5 -9 -23 -13 -40 -10 -43
-117 -368 -125 -380 -4 -5 -16 -32 -26 -60 -88 -240 -246 -506 -615 -1030
-119 -170 -208 -303 -309 -462 -81 -129 -81 -250 0 -568 17 -66 47 -172 66
-235 19 -63 65 -216 103 -340 37 -124 75 -254 84 -290 10 -36 21 -78 26 -95 5
-16 11 -41 14 -55 2 -14 12 -61 20 -105 9 -44 18 -98 21 -120 3 -22 7 -50 9
-61 21 -107 22 -561 1 -784 -2 -19 -6 -80 -10 -135 -4 -54 -9 -107 -10 -117
-2 -10 -7 -51 -10 -91 -3 -39 -8 -88 -10 -107 -2 -19 -7 -60 -10 -90 -6 -62
-15 -142 -20 -180 -2 -14 -7 -58 -10 -98 -4 -41 -8 -81 -10 -90 -1 -9 -6 -55
-10 -102 -4 -47 -8 -92 -10 -100 -2 -8 -6 -60 -10 -115 -3 -55 -8 -118 -11
-141 -15 -132 -20 -565 -9 -754 11 -203 23 -363 30 -410 2 -14 6 -54 10 -90 4
-36 8 -76 10 -90 2 -14 7 -50 10 -80 4 -30 9 -62 10 -70 1 -8 6 -40 10 -70 4
-30 9 -64 11 -75 2 -10 6 -35 9 -55 3 -20 7 -45 9 -57 3 -12 8 -43 12 -70 5
-26 9 -50 9 -53 1 -3 5 -26 9 -53 10 -59 49 -114 118 -166 122 -92 354 -186
429 -174 45 6 144 57 199 101 119 96 187 194 241 344 57 163 60 190 54 668 -3
239 -7 491 -9 560 -2 69 -7 233 -11 365 -3 132 -8 287 -10 345 -5 140 -16 603
-19 812 -5 301 21 378 271 806 147 250 203 364 247 497 32 97 101 357 112 425
3 14 13 68 24 120 10 52 21 111 24 130 3 19 7 44 10 55 2 11 13 72 25 135 12
63 42 207 67 320 25 113 47 212 49 221 13 67 73 270 100 339 62 161 143 302
226 393 l44 49 -2 -1277 -1 -1276 21 -8 c28 -10 214 -7 224 3 4 4 8 627 8
1384 l0 1377 50 27 c28 15 93 46 145 69 100 44 178 79 298 136 41 18 79 35 85
36 9 1 12 -117 13 -481 1 -301 5 -487 11 -493 6 -6 76 -8 174 -7 l164 3 3 581
2 580 368 181 c202 100 403 198 447 218 138 64 287 130 380 169 50 21 104 44
120 51 58 25 304 115 314 115 6 0 19 4 29 9 20 11 217 75 372 121 111 33 1022
288 1054 295 10 3 34 9 52 15 37 13 39 12 110 -43 l51 -39 -24 -82 c-13 -44
-26 -88 -28 -96 -4 -16 -210 -730 -296 -1025 -27 -93 -51 -177 -53 -185 -2 -8
-25 -87 -51 -175 -75 -257 -96 -329 -100 -345 -2 -8 -24 -87 -50 -175 -26 -88
-66 -227 -90 -310 -63 -217 -150 -516 -255 -870 -51 -170 -96 -323 -100 -340
-4 -16 -37 -127 -73 -245 -36 -118 -126 -415 -201 -660 -74 -245 -187 -616
-251 -825 -64 -209 -118 -384 -119 -390 -1 -5 -11 -37 -21 -70 -10 -33 -19
-64 -21 -70 -1 -5 -25 -83 -53 -172 -27 -89 -55 -181 -62 -205 -15 -53 -14
-50 -22 -68 -3 -8 -30 -98 -60 -200 -31 -102 -85 -282 -120 -400 -36 -118 -70
-231 -75 -250 -18 -60 -99 -331 -127 -420 -14 -47 -28 -92 -30 -100 -2 -9 -33
-113 -69 -232 -36 -119 -74 -247 -85 -285 -11 -37 -47 -160 -81 -273 -33 -113
-62 -212 -65 -220 -2 -8 -24 -87 -50 -175 -26 -88 -48 -167 -50 -175 -2 -8
-10 -37 -18 -65 -38 -123 -101 -349 -192 -685 -42 -157 -86 -314 -97 -350 -11
-36 -21 -72 -23 -80 -29 -123 -253 -719 -356 -947 -10 -24 -19 -45 -19 -48 0
-2 -11 -28 -24 -57 -13 -29 -38 -87 -56 -128 -18 -41 -40 -93 -50 -115 -32
-72 -193 -449 -215 -505 -13 -30 -39 -95 -59 -145 -20 -49 -41 -99 -46 -110
-42 -90 -184 -498 -258 -747 -21 -67 -87 -347 -96 -403 -3 -16 -12 -70 -20
-120 -8 -49 -18 -110 -21 -135 -7 -55 -14 -97 -20 -130 -2 -14 -7 -45 -10 -70
-3 -25 -8 -52 -10 -60 -2 -8 -7 -35 -10 -60 -11 -81 -56 -290 -76 -352 -32
-101 -41 -184 -56 -523 -4 -88 -7 -223 -7 -300 0 -123 3 -146 22 -186 82 -172
287 -255 522 -212 41 8 127 32 192 53 196 66 304 143 360 257 28 57 31 74 31
148 -1 120 -30 202 -159 440 l-48 90 -2 180 c-3 194 -11 367 -20 413 -5 25 -1
62 21 212 6 41 14 102 20 155 3 28 10 82 15 120 5 39 12 90 15 115 5 39 18
114 40 235 43 236 181 709 306 1045 39 106 97 258 108 285 5 11 16 38 24 60 9
22 43 109 77 194 74 185 82 205 80 209 0 1 6 15 14 30 9 15 43 97 76 182 34
85 68 169 75 185 17 38 158 406 192 500 94 264 160 476 298 970 31 110 61 214
66 230 5 17 28 93 50 170 22 77 52 178 65 225 41 139 334 1110 355 1175 22 69
26 83 68 220 16 55 74 240 127 410 53 171 100 324 104 340 5 17 38 125 75 240
36 116 86 273 110 350 24 77 62 199 85 270 23 72 43 137 45 146 2 9 26 88 54
175 27 88 68 218 90 289 22 72 65 211 96 310 31 99 58 187 60 195 6 22 122
405 145 475 20 63 189 629 195 655 2 8 29 98 60 200 31 102 58 190 59 195 4
18 191 614 273 870 19 61 45 144 58 185 13 41 39 125 58 185 108 333 262 842
282 930 3 11 11 43 20 70 24 83 71 259 124 465 58 224 75 282 122 400 111 281
273 456 520 562 76 33 204 73 269 84 14 2 36 7 50 9 65 13 78 15 115 20 22 3
56 7 75 10 46 6 155 14 252 20 59 3 131 20 295 70 120 37 263 80 318 96 55 17
120 37 145 46 25 8 52 16 60 18 15 4 293 88 890 270 173 53 320 97 325 99 6 2
17 6 25 9 36 14 331 89 406 103 6 1 51 12 100 24 49 12 96 23 104 25 8 2 120
28 247 59 128 30 243 58 255 60 13 2 55 11 93 19 39 9 84 18 100 20 17 3 89
17 160 31 72 15 146 29 165 32 19 3 37 7 40 9 3 2 26 6 50 10 25 3 65 11 90
17 25 5 59 12 75 15 17 2 84 15 150 28 66 13 134 26 150 29 17 3 55 10 85 16
30 7 69 14 85 16 17 3 46 9 65 14 19 5 55 12 80 15 24 3 60 9 80 15 19 5 51
11 70 14 19 3 46 8 60 11 50 10 77 15 175 34 55 11 118 23 140 27 22 4 45 8
50 10 6 1 37 7 70 13 33 6 71 13 85 16 69 13 138 27 160 31 14 2 59 11 100 19
41 8 86 16 100 19 32 5 598 114 626 120 12 2 39 7 60 11 70 12 78 14 184 35
58 11 119 23 135 26 38 7 389 73 605 114 91 18 176 34 190 36 14 2 45 9 70 14
25 5 65 12 90 16 24 3 47 7 50 9 3 2 22 6 43 9 21 3 72 13 114 22 41 8 88 17
105 19 16 2 44 7 61 11 18 4 34 8 37 9 149 30 249 82 276 145 29 66 1 136
-118 295 -118 158 -269 304 -393 382 -93 59 -276 133 -365 148 -19 3 -50 10
-69 15 -19 5 -73 8 -120 6 -135 -5 -172 -34 -247 -192 -49 -103 -120 -182
-200 -225 -43 -23 -124 -46 -229 -64 -16 -2 -41 -7 -55 -10 -22 -5 -119 -24
-205 -40 -16 -3 -53 -10 -81 -16 -28 -5 -64 -12 -80 -15 -16 -3 -63 -12 -104
-20 -41 -8 -86 -17 -100 -19 -14 -2 -59 -11 -100 -19 -41 -9 -93 -18 -115 -21
-22 -4 -48 -8 -57 -11 -10 -3 -29 -7 -43 -10 -62 -10 -173 -31 -215 -39 -14
-3 -41 -8 -60 -11 -19 -4 -44 -8 -55 -10 -11 -3 -33 -7 -50 -9 -16 -3 -64 -12
-105 -20 -41 -8 -91 -17 -110 -20 -19 -3 -46 -8 -60 -10 -44 -9 -72 -14 -160
-30 -47 -8 -96 -17 -110 -20 -14 -3 -52 -10 -85 -15 -33 -6 -71 -12 -85 -14
-14 -3 -52 -10 -85 -15 -33 -6 -70 -13 -81 -15 -12 -2 -37 -7 -55 -10 -19 -3
-43 -7 -54 -9 -26 -5 -80 -15 -125 -22 -30 -5 -82 -14 -180 -30 -56 -10 -217
-37 -240 -40 -14 -2 -65 -11 -115 -19 -49 -8 -115 -18 -145 -21 -30 -4 -66 -8
-80 -10 -26 -4 -105 -11 -205 -20 -92 -8 -295 -19 -520 -30 -66 -3 -149 -7
-185 -9 -36 -3 -114 -7 -175 -11 -60 -3 -132 -8 -160 -10 -27 -2 -102 -7 -165
-10 -63 -3 -142 -8 -175 -10 -33 -2 -100 -7 -150 -10 -49 -3 -124 -7 -165 -10
-41 -2 -120 -7 -175 -10 -55 -3 -131 -7 -170 -10 -80 -6 -227 -15 -330 -20
-209 -11 -271 -17 -356 -36 -52 -11 -105 -23 -119 -25 -14 -3 -59 -11 -100
-19 -41 -8 -91 -17 -110 -20 -19 -3 -84 -14 -145 -25 -60 -10 -128 -21 -150
-25 -54 -8 -95 -14 -125 -20 -14 -3 -47 -7 -75 -10 -27 -4 -57 -8 -65 -10 -8
-2 -35 -7 -60 -10 -25 -3 -58 -9 -75 -11 -16 -3 -41 -7 -55 -9 -14 -2 -40 -6
-57 -9 -18 -4 -33 -5 -33 -2 0 2 18 75 39 162 22 88 42 170 44 184 3 14 43
180 90 370 82 335 166 679 172 710 2 8 4 16 5 18 3 2 3 2 15 57 4 22 9 45 11
50 2 6 5 19 8 30 2 11 27 115 56 230 28 116 53 217 55 225 2 8 13 56 25 105
12 50 23 95 24 100 5 24 109 451 114 465 3 8 6 22 8 31 2 9 29 120 60 245 31
126 57 234 58 239 1 6 5 19 9 30 3 11 8 31 11 45 2 14 21 90 41 170 20 80 39
154 41 165 15 79 46 159 83 214 96 145 99 163 92 549 l-1 63 -40 -3 c-22 -1
-42 -3 -43 -4z"/>
<path d="M12768 22305 c-1 -1 -28 -6 -58 -9 -111 -12 -144 -18 -233 -40 -145
-37 -173 -57 -224 -151 -85 -159 -161 -386 -179 -535 -13 -111 -7 -811 11
-1220 2 -41 7 -304 10 -585 8 -614 13 -573 -106 -925 -83 -246 -89 -286 -84
-520 2 -107 6 -204 8 -215 3 -11 8 -55 12 -98 3 -43 8 -87 10 -98 27 -139 27
-625 0 -1094 -1 -22 -6 -107 -9 -190 -4 -82 -9 -177 -11 -210 -6 -84 -6 -610
-1 -665 3 -25 7 -74 11 -110 3 -36 8 -83 11 -105 9 -66 12 -87 19 -145 4 -30
9 -64 11 -75 2 -11 7 -45 10 -75 3 -30 7 -62 9 -70 2 -8 7 -44 10 -80 4 -36 8
-67 10 -70 6 -11 19 -252 18 -360 0 -117 -10 -303 -18 -330 -2 -8 -7 -37 -10
-65 -3 -27 -12 -90 -21 -140 -8 -49 -17 -103 -20 -120 -4 -28 -16 -98 -29
-170 -2 -16 -7 -41 -10 -55 -3 -14 -14 -77 -25 -140 -11 -63 -23 -128 -26
-145 -8 -43 -52 -285 -58 -320 -7 -38 -14 -73 -22 -108 -3 -16 -7 -38 -8 -50
-2 -12 -6 -35 -9 -52 -4 -16 -9 -46 -12 -65 -3 -19 -10 -57 -15 -85 -5 -27
-12 -61 -14 -75 -3 -14 -21 -113 -41 -220 -20 -107 -38 -206 -40 -220 -2 -14
-7 -38 -10 -55 -37 -184 -56 -310 -54 -355 5 -130 1 -160 -40 -300 -24 -80
-44 -152 -46 -160 -3 -15 -44 -160 -262 -925 -135 -477 -231 -816 -249 -884
-14 -51 -88 -318 -119 -426 -8 -27 -22 -77 -32 -110 -9 -33 -18 -65 -19 -72
-2 -14 -41 -149 -60 -213 -7 -25 -22 -79 -33 -120 -11 -41 -51 -192 -90 -335
-39 -143 -74 -273 -76 -290 -3 -16 -10 -52 -15 -80 -12 -67 -22 -159 -35 -325
-4 -47 -8 -96 -10 -110 -2 -14 -7 -52 -10 -85 -19 -169 -73 -367 -225 -820
-56 -165 -104 -307 -107 -315 -3 -8 -8 -19 -9 -25 -2 -5 -42 -125 -90 -265
-47 -140 -91 -277 -99 -305 -8 -27 -23 -84 -35 -125 -12 -41 -23 -83 -25 -93
-3 -10 -7 -27 -10 -37 -3 -10 -8 -27 -10 -37 -2 -10 -24 -99 -48 -198 -77
-313 -281 -1208 -302 -1324 -3 -19 -8 -37 -10 -41 -3 -4 -7 -22 -9 -41 -4 -26
-50 -249 -71 -339 -4 -17 -171 -792 -179 -830 -3 -14 -12 -56 -21 -95 -17 -74
-22 -97 -29 -130 -2 -11 -11 -50 -20 -88 -9 -37 -18 -81 -21 -98 -23 -131 -92
-332 -178 -519 -51 -111 -58 -136 -59 -200 -2 -155 126 -294 356 -385 38 -15
81 -29 94 -31 14 -3 29 -7 32 -9 4 -2 42 -12 86 -22 62 -13 128 -17 309 -18
127 0 255 3 285 8 207 29 334 60 428 104 107 50 286 257 346 400 30 73 37 100
41 176 4 71 -6 107 -47 172 -119 189 -152 257 -182 379 -42 167 -29 313 54
616 28 102 65 235 81 295 39 140 169 625 174 645 1 8 22 87 45 175 23 88 43
167 45 175 1 8 19 78 39 155 20 78 38 150 41 160 2 11 21 90 43 175 22 85 108
425 192 755 210 828 242 952 303 1175 87 313 119 428 132 470 7 25 23 79 35
120 12 41 25 86 30 100 5 14 42 129 84 255 41 127 100 302 131 390 86 244 198
612 244 794 39 156 44 177 56 246 3 17 10 53 15 80 5 28 12 70 15 95 22 171
60 310 211 765 25 77 46 158 47 181 0 25 -13 72 -35 125 -23 53 -38 108 -42
149 -3 36 -8 76 -11 90 -2 14 -7 36 -10 50 -2 14 -6 36 -9 50 -2 14 -14 75
-25 135 -12 61 -24 125 -26 143 -3 17 -7 49 -10 69 -22 149 5 318 68 433 204
372 280 689 242 1010 -12 103 -19 138 -57 270 -36 126 -35 193 7 364 15 60 28
116 30 125 2 9 33 135 70 281 37 146 69 273 71 284 2 10 11 44 20 75 16 55 18
63 30 128 7 36 15 39 107 38 l68 0 133 -395 c112 -336 142 -432 170 -550 5
-20 36 -168 42 -200 22 -115 243 -373 479 -562 266 -212 534 -350 725 -373 30
-4 64 -9 75 -11 49 -10 229 -4 295 10 81 17 181 62 220 98 80 75 104 138 204
528 57 224 91 347 115 418 26 77 250 680 307 822 7 19 58 152 113 295 54 143
131 341 169 440 64 164 112 285 309 785 119 302 440 1085 518 1265 25 57 113
270 160 385 26 63 51 119 55 124 8 8 32 11 160 20 l59 4 36 -92 c20 -50 43
-104 50 -121 20 -44 86 -226 90 -247 2 -10 6 -21 8 -26 3 -4 32 -106 66 -227
59 -214 102 -359 120 -400 5 -11 15 -36 22 -55 31 -86 125 -262 253 -474 110
-180 139 -237 139 -265 1 -34 -10 -243 -18 -361 -2 -30 -6 -116 -10 -190 -3
-74 -8 -162 -10 -195 -4 -59 -11 -172 -20 -370 -8 -151 -22 -409 -30 -535 -2
-36 -7 -121 -11 -190 -3 -69 -7 -148 -9 -176 -2 -28 0 -56 4 -62 7 -11 254
-22 265 -12 3 3 8 64 11 135 3 72 8 153 10 180 2 28 6 109 10 180 3 72 8 159
10 195 10 146 15 241 20 355 3 66 7 147 10 180 5 62 17 289 18 338 0 15 3 27
6 27 3 0 19 -21 35 -48 48 -76 125 -173 190 -237 77 -76 94 -90 243 -199 118
-86 199 -205 283 -416 85 -210 114 -264 377 -690 19 -30 39 -64 46 -75 7 -11
29 -46 50 -78 20 -32 37 -60 37 -62 0 -2 28 -48 62 -102 87 -138 384 -627 423
-696 10 -18 306 -507 325 -537 6 -8 143 -233 306 -500 163 -267 345 -563 403
-658 58 -95 113 -185 122 -200 9 -15 53 -88 99 -162 46 -74 90 -147 99 -162
17 -29 88 -145 264 -433 129 -211 159 -273 160 -337 3 -81 -47 -126 -176 -158
-114 -29 -193 -35 -582 -45 -104 -3 -206 -7 -225 -10 -19 -2 -57 -7 -85 -11
-132 -17 -286 -90 -349 -165 -109 -129 -51 -268 141 -334 169 -58 544 -143
753 -170 19 -3 53 -7 75 -10 65 -9 403 -13 493 -6 95 7 108 4 106 -24 -1 -11
-5 -78 -8 -150 -4 -71 -9 -161 -12 -200 -19 -313 -17 -337 34 -356 40 -15 157
-15 186 1 38 20 41 32 51 225 18 370 24 465 30 475 6 9 131 -16 340 -70 88
-23 189 -48 225 -57 36 -8 74 -17 85 -19 11 -3 49 -11 85 -18 l65 -12 -2 -70
c0 -38 -4 -116 -7 -174 -3 -58 -8 -148 -11 -200 -10 -186 -16 -286 -20 -355
-2 -38 -7 -124 -10 -190 -3 -66 -8 -145 -10 -175 -2 -30 -7 -111 -10 -180 -10
-199 -20 -387 -30 -560 -5 -69 -11 -191 -20 -365 -6 -120 -15 -277 -20 -355
-2 -41 -7 -129 -10 -195 -3 -66 -8 -149 -10 -185 -19 -279 -19 -275 8 -305 22
-26 31 -29 106 -33 90 -4 124 8 141 53 5 13 11 79 14 147 4 67 8 159 11 203 2
44 7 132 10 195 4 63 8 140 10 170 5 86 20 357 30 555 3 55 7 136 10 180 3 44
7 130 10 190 6 106 8 139 20 365 11 210 15 277 21 375 3 55 7 127 9 160 9 177
17 326 20 375 3 50 17 299 18 327 0 9 14 10 46 6 25 -3 123 -6 217 -6 167 0
171 0 220 27 82 45 167 136 199 214 21 50 19 67 -20 136 -55 99 -76 170 -81
271 -3 73 1 102 19 155 37 110 120 212 248 307 57 42 205 129 228 135 14 3 15
-37 6 -167 -1 -22 -6 -98 -9 -170 -4 -71 -9 -159 -11 -195 -3 -36 -7 -121 -10
-190 -3 -69 -8 -154 -10 -190 -2 -36 -6 -114 -10 -175 -3 -60 -8 -146 -10
-190 -3 -44 -7 -125 -10 -180 -3 -55 -8 -131 -10 -170 -2 -38 -7 -126 -10
-195 -3 -69 -8 -151 -10 -182 -3 -35 -1 -59 6 -64 18 -11 256 -17 262 -7 4 6
9 63 12 129 3 65 8 155 10 199 3 44 7 123 10 175 3 52 8 136 10 185 5 89 8
148 20 375 3 63 8 140 10 170 3 30 7 111 10 180 3 69 7 157 10 195 8 125 15
258 20 370 5 116 14 238 18 241 1 0 47 22 102 47 106 48 219 101 375 174 52
25 120 57 150 70 30 14 129 61 219 104 90 44 165 79 167 79 2 0 176 85 387
189 410 203 432 217 503 328 35 54 43 98 22 126 -24 31 -273 188 -383 242
-188 92 -246 102 -485 79 -184 -17 -483 -7 -650 22 -19 4 -44 8 -55 9 -43 6
-188 47 -272 76 -162 57 -316 143 -473 265 -119 92 -125 98 -470 434 -157 153
-319 310 -360 350 -839 809 -1540 1515 -1965 1979 -27 31 -59 65 -70 76 -41
45 -171 189 -200 224 -16 19 -37 42 -45 51 -38 40 -256 298 -351 415 -250 308
-485 666 -749 1140 -18 33 -43 78 -55 100 -13 22 -82 148 -155 280 -152 276
-272 486 -342 598 -26 43 -48 81 -48 83 0 3 -8 17 -19 32 -39 56 -402 604
-450 680 -114 179 -321 562 -406 752 -26 58 -55 124 -66 147 -20 43 -43 106
-110 288 -74 204 -156 521 -189 725 -6 41 -14 86 -16 100 -22 131 -22 429 1
530 3 14 7 37 9 51 8 50 48 172 82 246 57 127 109 205 235 359 31 38 72 98 91
134 55 106 110 238 104 248 -14 23 -110 64 -135 58 -51 -12 -67 -16 -166 -42
-55 -14 -111 -28 -125 -30 -14 -3 -33 -7 -42 -10 -9 -3 -25 -7 -35 -9 -130
-27 -331 -91 -548 -175 -110 -43 -275 -95 -329 -104 -157 -28 -291 -25 -431 8
-25 5 -193 64 -220 76 -11 5 -60 28 -110 50 -154 72 -196 86 -510 170 -44 12
-111 30 -150 41 -38 10 -72 19 -74 19 -2 0 -1 -53 2 -117 5 -108 9 -129 50
-238 174 -470 184 -663 49 -955 -76 -165 -105 -305 -106 -510 -1 -155 5 -236
24 -340 26 -149 35 -189 71 -325 43 -164 49 -354 15 -515 -39 -191 -141 -410
-344 -745 -302 -499 -289 -470 -493 -1040 -10 -27 -95 -252 -189 -500 -94
-247 -173 -454 -174 -460 -2 -5 -6 -17 -9 -25 -4 -8 -22 -57 -41 -109 -19 -51
-37 -95 -39 -97 -5 -5 -90 47 -150 91 -39 29 -45 42 -264 590 -207 519 -475
1209 -538 1385 -15 41 -31 84 -35 95 -38 86 -309 884 -392 1155 -45 148 -152
524 -163 575 -2 11 -22 99 -44 195 -47 207 -49 218 -58 335 -11 147 -6 355 12
482 5 31 36 212 49 288 2 11 13 61 24 110 24 105 48 229 58 300 3 28 8 58 10
68 9 54 17 197 17 302 -3 328 -94 592 -297 860 -28 37 -205 216 -237 240 -42
32 -155 65 -171 50z"/>
<path d="M3985 13836 c-76 -28 -163 -105 -201 -178 -131 -254 -86 -575 94
-667 127 -65 289 20 371 195 84 175 87 367 9 516 -17 31 -40 65 -51 76 -63 58
-156 82 -222 58z"/>
</g>
</svg>
