<?xml version="1.0" standalone="no"?>
<!DOCTYPE svg PUBLIC "-//W3C//DTD SVG 20010904//EN"
 "http://www.w3.org/TR/2001/REC-SVG-20010904/DTD/svg10.dtd">
<svg version="1.0" xmlns="http://www.w3.org/2000/svg"
 width="1200.000000pt" height="1200.000000pt" viewBox="0 0 1200.000000 1200.000000"
 preserveAspectRatio="xMidYMid meet">
<metadata>
Created by potrace 1.14, written by Peter Selinger 2001-2017
</metadata>
<g transform="translate(0.000000,1200.000000) scale(0.100000,-0.100000)"
fill="#000000" stroke="none">
<path d="M5990 11438 c-11 -12 -21 -25 -21 -30 -1 -4 -2 -14 -4 -20 -1 -7 4
-23 12 -35 23 -38 15 -54 -64 -137 -118 -123 -113 -116 -160 -241 -9 -23 -15
-76 -16 -123 l-1 -84 49 -41 c26 -23 66 -54 89 -69 64 -43 66 -46 67 -101 1
-29 2 -122 3 -207 2 -85 6 -165 10 -177 11 -34 -4 -28 -65 25 -124 109 -167
133 -170 95 -1 -10 -3 -65 -4 -123 -2 -83 -5 -104 -16 -102 -8 2 -18 8 -24 15
-5 7 -28 25 -50 41 -22 17 -42 33 -45 36 -3 4 -31 23 -63 44 -32 21 -62 47
-68 57 -5 10 -11 48 -13 83 -1 36 -8 72 -16 81 -29 34 -214 145 -243 145 -54
0 -232 -80 -240 -109 -25 -78 -39 -132 -44 -168 -5 -40 -3 -42 49 -83 57 -46
203 -150 308 -221 36 -24 67 -46 70 -49 3 -3 13 -9 22 -15 22 -13 323 -219
369 -254 20 -14 72 -52 116 -83 l80 -57 -2 -313 c-1 -187 2 -318 8 -325 5 -7
6 -13 3 -13 -4 0 -2 -9 4 -19 7 -14 7 -22 -1 -27 -6 -3 -38 20 -73 53 -54 53
-125 113 -246 205 -19 15 -52 42 -73 59 l-37 31 6 -178 c3 -99 8 -181 9 -184
2 -3 0 -12 -5 -20 -7 -12 -16 -9 -47 16 -21 17 -79 58 -128 91 -50 33 -96 67
-102 74 -7 9 -8 31 -3 64 8 55 6 150 -4 191 -9 33 -16 40 -98 92 -69 43 -101
50 -129 29 -37 -28 -89 -169 -89 -242 0 -36 6 -47 60 -100 l59 -59 -19 -32
c-11 -17 -20 -38 -20 -45 0 -17 38 -58 115 -124 32 -27 64 -66 72 -85 9 -19
19 -37 23 -40 13 -9 103 -85 121 -102 10 -9 53 -44 96 -78 43 -34 85 -67 93
-73 8 -7 44 -35 80 -62 36 -27 70 -54 76 -60 6 -5 23 -19 39 -30 38 -27 97
-76 115 -96 13 -14 15 -49 14 -210 -3 -327 -1 -298 -28 -309 -30 -11 -77 -61
-118 -123 -37 -57 -39 -57 -151 7 -112 63 -137 73 -148 55 -5 -8 -9 -39 -10
-69 0 -30 -2 -88 -2 -129 -2 -54 -6 -76 -17 -82 -32 -18 -249 -117 -270 -124
-17 -5 -42 8 -118 67 -53 40 -101 76 -107 80 -5 5 -47 37 -92 73 -78 62 -83
68 -78 98 5 36 16 581 14 752 -2 266 -1 338 6 465 13 218 12 335 -4 353 -20
25 -198 79 -233 72 -15 -4 -28 -11 -28 -16 0 -5 -7 -9 -15 -9 -8 0 -39 -24
-69 -53 -58 -58 -63 -72 -70 -202 -3 -71 4 -92 63 -167 l44 -58 -8 -137 c-4
-76 -9 -182 -10 -235 -1 -54 -4 -100 -6 -102 -6 -6 -121 86 -220 175 -69 61
-115 99 -121 99 -1 0 -2 -97 -2 -215 1 -195 0 -214 -15 -205 -17 9 -312 239
-321 249 -3 4 -39 32 -80 63 -41 32 -93 73 -115 93 -22 19 -55 45 -72 57 -42
29 -46 43 -28 78 8 16 17 69 20 122 3 51 7 125 10 163 3 39 8 108 11 155 3 47
7 110 9 140 2 30 6 107 9 170 4 63 8 140 11 170 2 30 7 117 10 194 l7 139 -26
22 c-15 13 -69 44 -120 70 -106 54 -99 54 -196 -20 -106 -82 -108 -86 -113
-205 -5 -120 3 -151 54 -200 l34 -32 0 -185 c0 -102 -3 -187 -6 -189 -4 -2
-17 7 -30 19 -35 34 -156 127 -164 127 -8 0 -1 -86 16 -190 5 -36 13 -82 16
-102 3 -21 2 -38 -1 -38 -6 0 -112 86 -136 110 -3 3 -34 30 -70 60 -85 72
-120 102 -136 118 -8 8 -14 36 -15 65 -4 255 3 235 -118 319 l-76 53 -164 1
c-147 1 -166 3 -178 20 -7 10 -13 26 -13 35 0 10 -16 34 -35 55 -33 34 -38 36
-82 31 -56 -6 -76 -28 -67 -72 10 -48 46 -93 91 -115 23 -10 45 -25 49 -32 4
-7 9 -85 10 -173 1 -88 2 -165 3 -172 0 -6 33 -38 71 -70 55 -45 78 -58 108
-59 50 -2 170 -14 207 -20 21 -4 63 -37 142 -115 61 -61 112 -114 112 -117 1
-4 -37 -10 -84 -14 -48 -4 -94 -12 -103 -17 -14 -8 -12 -12 17 -28 67 -36 247
-170 240 -177 -2 -2 -29 -7 -59 -10 -30 -4 -66 -9 -80 -11 -14 -2 -47 -7 -75
-10 -27 -3 -61 -7 -75 -10 -154 -27 -195 -27 -242 0 -52 30 -68 31 -151 5 -75
-23 -108 -53 -144 -129 -36 -77 -35 -115 5 -173 17 -26 32 -50 32 -54 0 -4 20
-26 45 -49 39 -38 49 -42 86 -39 47 3 139 21 184 34 17 5 46 12 65 15 19 3 42
8 50 10 8 2 30 7 47 10 18 3 153 30 300 61 148 30 279 57 293 60 14 2 37 7 52
10 15 3 29 5 30 4 2 -1 16 4 33 10 16 6 50 13 76 16 46 5 48 5 112 -58 35 -35
76 -73 91 -86 15 -12 52 -46 84 -75 132 -120 202 -180 237 -204 20 -14 34 -27
31 -30 -3 -3 -27 -7 -53 -8 -53 -3 -265 -39 -324 -55 -21 -6 -41 -14 -43 -19
-3 -5 20 -32 52 -61 98 -89 182 -172 182 -181 0 -13 -13 -17 -70 -24 -30 -4
-64 -8 -75 -10 -11 -1 -49 -5 -85 -9 -36 -4 -77 -9 -93 -12 -22 -4 -36 5 -78
46 -75 74 -97 83 -213 83 -94 1 -100 -1 -121 -25 -20 -23 -21 -32 -14 -80 5
-29 11 -77 15 -107 3 -30 8 -62 9 -70 2 -9 4 -23 4 -32 2 -28 34 -36 256 -65
59 -8 50 -8 145 1 55 5 91 3 135 -9 61 -16 165 -16 455 0 58 3 111 5 118 5 6
-1 18 -1 25 -2 6 0 64 2 127 5 63 4 156 9 207 11 l91 4 177 -184 c97 -101 177
-187 177 -190 2 -13 -97 -153 -117 -165 -13 -9 -65 -12 -171 -11 -118 1 -153
-1 -162 -12 -10 -11 4 -37 68 -128 44 -62 80 -117 80 -121 0 -22 -52 -107 -67
-112 -10 -3 -101 -8 -203 -11 -102 -4 -213 -8 -247 -9 -71 -4 -77 -1 -183 94
-40 36 -91 81 -114 100 -22 19 -67 61 -101 94 -33 32 -73 69 -90 83 -16 14
-62 55 -101 90 -107 95 -115 102 -149 123 -16 10 -48 21 -70 25 -97 16 -218
62 -211 80 10 26 -90 133 -147 156 -22 10 -41 8 -95 -6 -76 -21 -161 -62 -175
-86 -14 -23 9 -122 47 -200 39 -81 62 -93 178 -95 59 -1 95 -6 110 -16 22 -15
248 -237 248 -244 0 -2 -73 -3 -161 -3 -89 -1 -164 -3 -166 -5 -7 -6 12 -38
49 -83 18 -22 44 -55 58 -73 14 -18 30 -38 35 -44 24 -25 68 -87 64 -90 -2 -2
-153 -6 -336 -10 -367 -6 -335 -11 -390 61 -15 19 -40 49 -57 66 -17 18 -65
75 -106 126 -74 94 -154 188 -208 246 -40 44 -132 171 -132 183 0 6 -4 12 -9
14 -5 1 -46 52 -91 112 -94 126 -135 166 -170 166 -46 0 -222 -163 -205 -190
3 -4 7 -56 9 -116 4 -103 5 -108 32 -133 16 -15 54 -37 85 -50 61 -24 90 -51
199 -185 61 -76 69 -91 54 -96 -10 -4 -34 -4 -53 0 -66 11 -171 6 -181 -10
-12 -19 -6 -28 83 -119 42 -44 77 -82 77 -86 0 -4 -62 -5 -137 -3 l-138 3 -55
54 c-160 156 -156 153 -281 146 -148 -8 -206 -41 -314 -179 -64 -81 -61 -80
-137 -61 -19 5 -35 -3 -76 -40 -69 -62 -68 -88 3 -112 33 -11 67 -3 91 22 9 8
19 15 22 15 10 0 44 -33 147 -145 50 -53 99 -101 109 -107 18 -10 68 -10 240
-3 63 3 60 0 144 102 65 79 100 92 248 92 68 0 124 -4 124 -9 0 -6 -25 -33
-56 -62 -106 -100 -155 -151 -149 -157 8 -8 201 -8 247 0 20 3 42 3 48 -1 20
-12 -165 -198 -260 -260 -62 -41 -108 -81 -112 -97 -6 -23 -1 -178 7 -220 4
-25 22 -46 73 -87 37 -29 81 -60 98 -69 28 -14 33 -14 55 1 31 22 78 71 126
130 21 26 43 52 49 57 6 6 36 39 65 75 30 36 64 76 76 90 11 14 83 102 159
195 76 94 141 172 144 175 3 3 38 49 78 102 40 54 78 101 84 104 6 4 100 6
207 4 108 -1 260 -3 338 -4 78 -1 145 -5 148 -8 3 -3 -40 -52 -96 -109 -102
-105 -155 -167 -148 -173 4 -3 242 -17 342 -19 26 -1 47 -3 47 -4 0 -1 -37
-40 -82 -87 -46 -46 -105 -107 -131 -135 -38 -40 -56 -51 -80 -52 -18 0 -61 0
-97 -1 -130 0 -178 -46 -206 -198 -24 -128 -16 -141 105 -164 160 -31 251 3
284 104 11 34 37 75 79 123 35 40 67 75 71 78 5 3 52 7 104 7 71 1 102 6 122
18 28 19 134 105 167 138 12 12 67 64 123 116 136 126 248 237 277 276 27 35
15 34 254 19 281 -17 305 -23 263 -71 -85 -95 -151 -189 -157 -221 -5 -25 27
-63 53 -63 10 0 21 -3 25 -7 3 -4 13 -8 21 -9 52 -8 170 -17 225 -18 77 -1 87
-6 88 -44 0 -15 18 -57 39 -92 49 -84 51 -126 5 -197 -18 -28 -45 -64 -60 -80
-15 -16 -60 -66 -101 -111 l-74 -82 -66 5 c-36 4 -77 8 -91 11 -14 2 -59 6
-100 10 -41 3 -97 7 -125 9 -92 7 -339 18 -395 17 -152 -1 -433 -24 -495 -39
-11 -3 -72 -6 -135 -8 -125 -4 -136 -6 -163 -21 -28 -16 -53 -101 -56 -189 -2
-120 14 -139 127 -149 95 -8 162 26 222 113 l23 33 126 -6 c342 -17 373 -23
319 -59 -37 -24 -263 -245 -258 -251 10 -9 111 -18 345 -31 39 -2 74 -4 79 -4
9 -1 -9 -19 -90 -88 -27 -22 -63 -54 -81 -70 -17 -15 -40 -35 -50 -43 -34 -29
-238 -213 -278 -252 -22 -21 -49 -41 -60 -44 -11 -3 -51 2 -90 11 -38 9 -77
18 -86 20 -28 6 -225 53 -544 131 -126 30 -237 57 -245 59 -8 1 -35 9 -60 16
-25 7 -48 12 -52 11 -4 -1 -18 2 -31 7 -13 5 -39 12 -58 15 -19 3 -43 8 -55
10 -29 6 -34 2 -107 -96 -44 -60 -63 -94 -61 -110 21 -151 24 -158 87 -221 86
-86 177 -120 243 -92 16 7 48 29 69 49 39 36 42 37 100 32 33 -3 71 -8 85 -11
14 -2 45 -7 69 -10 24 -3 46 -7 50 -9 3 -2 28 -7 55 -10 27 -4 53 -9 57 -12 4
-2 -34 -44 -84 -94 -62 -59 -89 -92 -82 -99 11 -11 135 -24 243 -25 39 0 72
-1 72 -3 0 -1 -42 -36 -92 -77 -51 -41 -115 -95 -143 -120 -76 -69 -93 -74
-235 -74 -69 -1 -136 -3 -150 -6 -23 -5 -55 -35 -135 -131 l-34 -41 -2 -144
c-2 -161 -7 -175 -65 -186 -45 -8 -68 -36 -60 -70 5 -18 2 -32 -9 -44 -8 -9
-13 -24 -9 -34 8 -21 50 -21 59 1 6 17 7 17 19 1 17 -23 50 -23 71 -2 34 34
47 64 41 90 l-7 26 118 -7 c262 -16 240 -19 331 42 45 29 87 63 93 74 6 12 12
69 13 128 2 60 6 113 10 119 3 6 46 41 94 78 48 38 89 71 92 74 3 3 28 23 55
45 28 22 52 43 53 47 2 5 9 8 16 8 9 0 12 -31 10 -124 -2 -90 1 -129 11 -142
12 -17 15 -17 47 8 19 14 51 43 71 63 21 21 41 35 44 31 4 -3 6 -81 6 -173
l-1 -167 -35 -33 c-20 -18 -40 -40 -45 -50 -7 -15 -8 -88 -3 -181 1 -20 47
-58 115 -96 101 -55 112 -55 197 3 41 27 86 61 101 76 l28 26 -5 192 c-3 106
-7 226 -10 267 -2 41 -7 134 -10 205 -12 261 -23 421 -31 457 -3 13 -7 39 -10
60 l-5 36 168 138 c93 76 215 178 273 227 128 108 132 110 156 92 18 -12 19
-27 16 -204 -2 -162 -1 -192 12 -197 13 -5 89 39 122 71 6 5 37 33 70 60 32
28 80 69 105 93 25 23 48 42 50 42 4 0 12 -272 13 -462 l0 -106 -46 -45 c-53
-50 -63 -77 -55 -145 4 -41 12 -53 74 -111 133 -128 150 -133 263 -76 105 53
104 49 95 288 -4 111 -8 292 -10 402 -7 465 -16 730 -30 842 -5 41 -4 43 47
82 29 22 65 49 79 60 14 11 38 26 53 32 14 7 26 16 26 21 0 4 4 8 8 8 5 0 46
22 91 50 112 67 115 67 156 31 44 -38 75 -54 148 -75 31 -9 57 -22 58 -29 0
-7 2 -19 4 -27 1 -8 6 -53 9 -98 11 -133 27 -158 88 -138 42 15 164 99 193
133 l19 24 31 -63 c21 -44 39 -67 61 -78 28 -14 30 -19 31 -75 1 -33 4 -144 7
-247 4 -123 3 -188 -4 -188 -5 0 -20 -9 -32 -19 -35 -29 -259 -213 -294 -241
-179 -142 -318 -268 -364 -328 -14 -18 -35 -44 -46 -57 -37 -41 -81 -127 -114
-224 -28 -82 -31 -101 -25 -159 13 -125 42 -162 142 -178 54 -8 102 8 141 49
43 44 51 77 46 185 -5 105 -14 92 118 195 48 37 91 73 95 81 4 7 21 21 37 31
l28 19 -7 -32 c-15 -72 -27 -303 -16 -321 8 -12 18 -9 58 15 44 27 57 35 111
64 9 5 61 34 115 65 54 31 103 55 109 53 17 -6 20 -557 4 -573 -6 -6 -45 -34
-86 -63 -41 -28 -106 -74 -145 -101 -38 -28 -221 -151 -406 -275 -184 -123
-343 -231 -352 -241 -20 -20 -23 -121 -6 -190 13 -52 39 -78 99 -98 75 -25
153 -56 181 -72 25 -14 32 -13 100 21 41 20 93 50 116 68 50 37 53 45 62 209
1 21 23 41 133 116 140 96 127 99 127 -26 0 -58 5 -111 10 -116 12 -12 42 5
123 70 37 30 71 52 76 49 5 -3 9 -119 10 -259 l2 -253 -32 -24 c-59 -43 -156
-141 -171 -172 -8 -17 -13 -41 -12 -52 2 -12 7 -46 10 -76 8 -79 9 -84 27
-111 18 -28 92 -103 170 -174 53 -48 56 -52 51 -91 -3 -28 3 -58 19 -99 21
-52 27 -59 54 -62 25 -3 37 4 68 37 42 45 49 77 33 139 -11 40 -10 44 13 63
65 52 170 151 170 161 0 6 10 21 22 34 20 21 22 34 22 130 l1 106 -104 97
-103 97 -1 164 c0 90 1 208 2 262 1 110 1 110 71 46 62 -56 99 -81 110 -74 6
3 10 46 10 101 0 75 3 94 14 94 20 0 195 -131 201 -150 2 -8 7 -46 9 -85 2
-38 9 -83 15 -98 14 -37 81 -98 134 -124 117 -57 95 -55 214 -13 60 20 122 43
139 49 46 18 65 59 71 160 7 107 14 97 -172 230 -50 36 -92 67 -95 70 -3 4
-27 22 -55 41 -27 19 -51 38 -53 42 -2 4 -8 8 -13 8 -5 0 -30 16 -56 36 -27
20 -61 45 -77 57 -16 12 -80 61 -142 109 -62 48 -126 95 -141 105 -16 10 -33
23 -39 28 -6 6 -41 30 -78 54 -36 24 -67 48 -67 55 -1 6 -1 22 -1 36 2 159 3
342 2 464 0 82 1 151 4 153 4 5 47 -15 56 -26 3 -3 12 -10 21 -16 47 -29 102
-68 122 -86 67 -57 226 -157 228 -142 1 12 -2 84 -6 123 -10 93 -15 210 -10
210 10 0 198 -146 224 -174 25 -26 26 -34 16 -203 -4 -76 21 -133 72 -164 42
-26 89 -22 159 12 71 36 85 61 88 157 1 45 1 95 -2 112 -5 32 -36 69 -74 87
-135 63 -180 89 -224 130 -28 26 -84 78 -124 115 -40 38 -71 71 -67 74 3 3 64
-8 136 -25 72 -17 135 -31 141 -31 14 0 13 19 -3 33 -26 25 -173 154 -201 178
-16 13 -34 29 -40 34 -6 6 -36 30 -66 55 -30 25 -61 51 -68 57 -7 7 -17 13
-20 13 -4 0 -18 10 -32 23 -14 12 -65 53 -115 91 -49 37 -95 75 -102 83 -7 9
-10 33 -7 57 4 40 8 88 19 251 9 121 15 178 21 195 3 8 31 34 63 56 l58 42 69
-40 c38 -22 88 -49 111 -59 43 -18 43 -18 63 3 11 12 21 31 21 42 1 12 3 32 4
46 2 14 4 52 6 85 3 77 8 95 25 95 8 0 14 5 14 10 0 6 7 10 15 10 13 0 131 59
182 90 17 11 28 9 74 -14 30 -14 83 -44 119 -67 305 -189 285 -174 284 -210 0
-19 -3 -68 -7 -109 -4 -41 -9 -122 -12 -180 -3 -58 -7 -130 -10 -160 -8 -98
-15 -251 -20 -440 -2 -102 -7 -239 -11 -305 -4 -66 -8 -158 -8 -204 0 -98 8
-108 101 -137 32 -9 63 -20 68 -24 6 -4 22 -10 37 -14 31 -7 115 28 164 69 16
13 40 33 54 44 23 18 25 25 25 108 l0 88 -58 57 -58 57 6 108 c12 202 14 248
20 357 3 61 7 112 10 114 2 3 17 -8 33 -24 117 -116 363 -297 380 -280 3 4 -6
55 -22 114 -74 277 -83 318 -76 325 4 5 23 -1 41 -12 19 -12 40 -21 47 -21 11
0 144 -101 172 -130 3 -3 43 -37 90 -75 47 -38 94 -77 105 -86 11 -10 62 -52
114 -95 103 -86 95 -68 77 -179 -20 -117 -19 -108 -42 -560 -4 -71 -8 -146 -9
-165 -9 -123 -18 -284 -19 -339 -1 -53 2 -69 19 -87 23 -25 179 -124 195 -124
13 0 110 53 173 94 56 37 68 67 70 169 2 80 -12 109 -78 157 l-34 25 -3 105
c-2 58 -1 152 2 209 l5 105 25 -37 c25 -36 158 -132 169 -122 3 4 4 56 3 116
-3 108 -3 110 17 100 11 -6 26 -19 33 -29 13 -17 63 -62 157 -142 29 -24 57
-53 62 -63 10 -17 22 -127 20 -176 -2 -46 21 -104 52 -133 66 -61 122 -95 152
-93 17 1 72 6 124 10 51 4 117 9 146 10 l53 2 13 -41 c18 -56 33 -70 70 -62
20 4 39 0 55 -11 36 -23 48 -6 45 63 -3 70 -17 94 -53 94 -47 0 -56 29 -58
174 0 81 -6 140 -14 160 -7 17 -43 64 -81 103 -77 83 -77 83 -246 88 -63 2
-119 4 -126 4 -6 1 -42 30 -80 65 -37 35 -95 89 -128 120 -32 30 -57 58 -53
61 7 7 34 12 118 19 36 4 74 8 85 10 11 3 28 5 38 5 9 1 17 6 17 13 0 16 -99
111 -150 143 -36 23 -45 39 -22 40 4 1 23 4 42 8 19 4 52 9 74 13 21 3 48 8
60 10 11 2 61 9 109 15 l89 12 36 -38 c67 -69 156 -86 243 -48 66 29 145 140
176 245 18 64 21 84 11 101 -15 29 -84 114 -125 154 l-32 31 -87 -19 c-47 -10
-201 -48 -342 -83 -141 -36 -270 -67 -285 -70 -15 -3 -51 -12 -80 -20 -29 -8
-65 -17 -82 -20 -16 -3 -101 -24 -188 -46 -87 -23 -168 -39 -180 -36 -12 3
-45 27 -73 54 -89 83 -217 197 -294 262 -100 85 -186 168 -180 173 3 3 32 8
65 11 33 4 74 9 90 11 17 3 53 7 80 9 74 7 149 17 158 23 10 6 -34 49 -181
177 -62 54 -111 101 -108 104 6 5 18 7 136 17 47 4 93 9 104 11 41 8 164 18
205 17 39 -1 49 -7 99 -58 64 -65 89 -78 152 -76 101 3 154 13 204 38 27 14
28 17 23 66 -8 79 -52 192 -85 219 -7 7 -50 13 -94 15 -58 2 -87 8 -107 22
-24 17 -52 29 -91 39 -82 20 -438 25 -565 8 -16 -3 -64 -7 -105 -10 -41 -3
-88 -8 -105 -10 -16 -2 -64 -7 -105 -11 -41 -3 -91 -8 -110 -11 -19 -2 -59 -7
-89 -9 -29 -3 -57 -8 -62 -11 -5 -3 -38 -7 -74 -10 l-65 -5 -154 151 c-146
143 -159 161 -144 185 12 20 34 110 44 182 3 23 9 55 13 70 l7 28 87 -2 c73
-2 95 2 146 24 60 26 82 52 64 76 -5 7 -45 56 -88 110 -52 65 -74 102 -68 108
6 6 57 12 114 15 105 4 271 11 430 19 l86 4 74 -82 c80 -89 309 -320 350 -352
13 -11 46 -37 71 -58 38 -30 95 -62 128 -72 18 -6 50 -22 83 -42 23 -14 46
-22 57 -18 11 3 40 -5 69 -20 42 -23 56 -38 87 -94 49 -91 85 -114 180 -114
39 0 101 6 138 13 80 15 97 33 86 88 -5 20 -10 57 -13 82 -15 131 -89 190
-243 194 -58 2 -94 8 -117 21 -35 19 -255 231 -247 238 3 3 77 8 165 12 215 9
215 9 215 16 0 3 -59 66 -130 139 -72 74 -127 137 -123 141 5 4 154 9 332 10
l324 3 36 -40 c20 -22 61 -69 91 -104 30 -35 82 -92 114 -127 32 -35 68 -73
78 -86 26 -30 121 -138 133 -151 6 -6 30 -36 55 -66 25 -30 67 -77 94 -105 26
-27 77 -81 111 -120 35 -38 76 -78 92 -87 27 -16 31 -16 68 1 46 21 111 75
127 105 7 12 13 68 14 124 3 144 -12 175 -116 237 -36 21 -104 78 -152 127
-81 81 -101 108 -80 108 120 2 243 8 248 13 8 8 -165 185 -189 193 -44 14 4
21 130 19 76 -2 143 -3 148 -4 6 -1 18 -13 27 -29 23 -39 124 -140 159 -157
23 -12 56 -14 170 -10 162 6 140 -4 286 136 82 79 100 87 145 70 44 -17 138
30 138 69 0 18 -32 51 -66 68 -11 6 -45 12 -75 13 -49 2 -86 12 -99 28 -3 3
-39 35 -80 71 -41 36 -77 69 -79 73 -8 20 -43 43 -83 55 -66 19 -202 22 -236
5 -16 -8 -66 -52 -111 -99 l-81 -84 -150 1 c-87 0 -150 4 -150 10 0 5 4 9 8 9
11 0 76 54 121 100 50 52 66 79 54 91 -11 11 -217 14 -233 4 -18 -11 -21 17
-4 34 11 10 60 62 109 116 64 69 106 105 146 125 83 43 85 47 94 235 3 55 -12
97 -47 135 -47 51 -121 110 -137 110 -18 0 -108 -90 -186 -185 -27 -33 -52
-62 -55 -65 -3 -3 -25 -30 -50 -60 -25 -30 -49 -60 -55 -66 -5 -6 -23 -28 -40
-50 -16 -21 -39 -48 -50 -60 -11 -12 -36 -41 -54 -64 -19 -24 -40 -48 -46 -54
-6 -6 -17 -20 -25 -32 -13 -18 -98 -118 -135 -158 -5 -6 -28 -34 -50 -61 -21
-28 -52 -64 -68 -81 l-29 -31 -277 2 c-152 2 -289 3 -305 4 l-30 1 55 53 c30
30 79 82 109 117 30 34 61 69 68 76 6 7 12 17 12 23 0 6 -6 12 -12 12 -7 1
-22 3 -33 5 -11 1 -76 6 -145 9 -68 4 -131 9 -140 10 -8 2 -18 4 -22 4 -19 2
-1 25 101 132 l109 113 84 -2 c92 -3 126 7 194 56 31 23 46 43 58 79 21 65 30
158 17 182 -15 27 -101 54 -207 65 -67 7 -151 -56 -190 -144 -25 -54 -26 -55
-87 -71 -34 -9 -85 -23 -114 -32 -54 -15 -141 -69 -194 -118 -17 -16 -45 -41
-63 -55 -41 -35 -198 -178 -310 -285 -181 -171 -164 -159 -226 -160 -108 -3
-156 -1 -217 5 -35 4 -89 9 -120 11 -158 11 -296 25 -302 30 -2 3 9 9 25 15
58 20 79 39 99 87 11 27 44 90 73 140 28 50 52 95 52 101 0 11 -17 18 -65 27
-16 2 -41 7 -55 10 -69 14 -164 13 -186 -2 -13 -8 -31 -12 -40 -9 -16 6 -16
12 2 129 4 29 1 43 -12 58 -17 18 -12 24 159 193 147 144 181 173 203 170 14
-1 67 -5 117 -9 51 -3 119 -8 152 -11 33 -2 89 -6 125 -9 36 -2 112 -8 170
-12 141 -9 323 -10 390 0 30 4 70 9 88 12 18 2 49 6 70 9 20 3 60 8 87 11 28
4 76 10 109 15 32 5 61 9 65 8 24 -6 144 17 161 30 22 18 53 128 64 224 6 52
5 58 -16 72 -52 33 -205 39 -269 11 -21 -10 -39 -22 -39 -27 0 -4 -4 -8 -10
-8 -10 0 -44 -26 -82 -63 -23 -21 -50 -26 -102 -16 -23 4 -70 10 -106 14 -36
4 -72 8 -80 10 -13 3 -143 18 -162 19 -18 2 -11 15 22 42 19 16 77 66 129 112
52 45 98 82 103 82 4 0 8 11 8 25 0 20 -5 25 -27 26 -36 1 -69 5 -113 12 -19
3 -57 9 -85 12 -97 12 -145 24 -145 34 0 4 23 27 52 52 29 24 64 55 79 69 14
14 57 54 95 89 38 35 111 104 162 153 l92 90 63 -10 c34 -6 73 -12 87 -15 14
-3 48 -9 75 -13 28 -4 55 -8 60 -10 6 -1 21 -4 35 -7 14 -3 45 -10 70 -15 25
-6 70 -14 100 -17 30 -4 58 -9 61 -11 3 -2 21 -6 40 -9 47 -8 139 -24 165 -29
12 -2 45 -7 75 -11 30 -3 68 -10 84 -15 17 -4 62 -14 100 -20 39 -7 102 -18
140 -25 39 -7 79 -13 90 -12 28 1 105 84 138 149 l28 55 -32 59 c-38 70 -90
136 -126 159 -40 27 -113 30 -159 7 -21 -10 -50 -18 -64 -17 -67 5 -197 18
-214 21 -10 2 -44 6 -75 9 -110 12 -151 21 -151 33 0 13 15 27 85 84 79 64
108 95 96 103 -5 2 -37 4 -72 4 -124 -2 -159 1 -159 12 0 6 56 66 124 133
l124 123 68 1 c126 1 216 11 238 26 11 7 45 36 75 63 l54 49 4 95 c3 93 10
247 12 261 1 4 23 19 51 33 43 22 50 30 55 62 3 21 8 48 10 59 3 12 -2 27 -10
34 -44 36 -131 2 -186 -75 -31 -44 -53 -60 -69 -50 -5 3 -68 8 -142 11 l-134
6 -49 -43 c-27 -24 -65 -59 -85 -77 l-35 -33 2 -137 2 -137 -32 -28 c-18 -15
-63 -54 -102 -85 -38 -31 -74 -62 -80 -68 -5 -6 -32 -28 -60 -50 -27 -21 -62
-52 -78 -69 l-28 -30 6 64 c3 36 8 67 10 71 4 6 10 64 20 183 5 56 -15 48
-108 -42 -45 -44 -84 -78 -86 -76 -2 3 -6 53 -8 112 -2 60 -5 140 -7 178 -3
88 1 103 43 151 50 57 70 110 65 169 -6 81 -14 114 -29 122 -7 5 -32 26 -55
47 -60 55 -135 104 -157 101 -32 -4 -63 -17 -63 -26 0 -5 -4 -9 -10 -9 -10 0
-36 -20 -107 -84 l-43 -39 5 -96 c3 -53 7 -118 10 -146 2 -27 7 -92 10 -143 4
-51 8 -102 11 -115 4 -21 7 -58 19 -252 3 -44 8 -105 10 -135 4 -50 12 -181
20 -337 4 -70 9 -62 -100 -153 -27 -23 -61 -52 -75 -64 -14 -12 -70 -57 -125
-101 -55 -44 -102 -82 -105 -85 -3 -3 -21 -17 -40 -30 -19 -13 -37 -27 -40
-30 -19 -21 -89 -69 -93 -63 -3 5 -3 22 -1 38 1 17 5 57 9 90 3 33 8 74 10 90
11 70 15 175 7 175 -9 0 -50 -35 -192 -160 -144 -128 -199 -166 -201 -142 -2
31 -9 158 -14 262 -3 69 -8 153 -10 188 -6 70 3 93 47 130 47 39 55 67 53 174
-2 112 -8 122 -116 203 -73 54 -84 56 -169 28 -82 -28 -131 -54 -139 -74 -4
-12 -6 -62 -4 -112 1 -51 5 -254 8 -452 3 -198 8 -405 11 -460 3 -55 7 -191 9
-302 l4 -202 -67 -53 c-37 -29 -111 -90 -165 -136 -64 -53 -105 -81 -115 -78
-29 9 -186 48 -207 52 -44 8 -111 26 -132 36 -22 11 -22 16 -21 139 1 145 -6
164 -50 148 -39 -14 -197 -96 -250 -130 -43 -27 -91 -38 -93 -21 -3 21 -7 92
-13 222 -3 80 -9 197 -12 260 -11 212 -11 222 8 245 10 13 29 25 42 29 13 3
55 31 93 61 85 70 87 71 148 120 28 21 55 44 60 49 6 6 33 29 60 51 129 102
321 298 335 340 5 17 11 56 12 87 3 53 7 60 46 96 44 41 46 46 43 147 -2 93
-10 138 -31 173 -16 26 -26 32 -54 32 -47 0 -99 -24 -141 -64 -44 -43 -52 -65
-54 -149 -2 -96 -10 -139 -30 -158 -17 -16 -196 -150 -218 -162 -8 -5 -12 36
-12 165 0 94 -5 176 -9 180 -6 6 -45 -21 -93 -63 -46 -40 -91 -78 -99 -85 -8
-7 -58 -49 -110 -93 -52 -45 -98 -81 -102 -81 -10 0 -11 93 -9 430 l2 255 31
26 c17 15 48 35 67 45 20 10 38 21 41 24 3 3 45 31 94 64 49 32 94 62 100 67
6 5 72 51 146 101 74 51 140 96 145 100 6 5 69 51 140 102 72 51 142 106 157
121 39 39 51 93 44 200 -3 49 -5 94 -6 98 0 17 -194 102 -230 101 -53 -2 -182
-77 -244 -143 -28 -29 -30 -35 -29 -116 l0 -85 -46 -34 c-25 -19 -89 -68 -141
-110 -52 -42 -98 -76 -103 -76 -4 0 -5 17 -1 38 8 42 13 221 7 238 -4 11 -41
-19 -136 -109 -28 -26 -52 -45 -54 -43 -2 2 -5 75 -7 162 -3 87 -8 170 -13
184 -8 24 -9 139 -2 143 37 24 181 139 202 161 24 26 27 36 22 75 -9 81 -17
106 -36 121 -11 8 -21 26 -24 39 -5 28 -46 97 -77 131 -96 106 -112 132 -119
199 -6 54 -12 69 -33 88 -34 29 -59 29 -86 1z"/>
</g>
</svg>
